PathFileType	4	(x/y/z)	S10_PSF_T07
DataRate	CameraRate	NumFrames	NumMarkers	Units	OrigDataRate	OrigDataStartFrame	OrigNumFrames
240	240	8	51	mm	240	54	431
Frame#	Time	Sternum			R.Acromium			L.Acromium			Top.Head			R.ASIS			L.ASIS			R.PSIS			L.PSIS			R.Great.Tro			L.Great.Tro			R.Iliac.Crest			L.Iliac.Crest			V.Sacral			R.Thigh.Upper.Post			R.Thigh.Lower.Ant			R.Thigh.Lower.Post			R.Thigh.Upper.Ant			R.Knee.Lat			R.Knee.Med			R.Shank.Upper.Post			R.Shank.Lower.Ant			R.Shank.Lower.Post			R.Shank.Upper.Ant			R.Ankle.Lat			R.Ankle.Med			R.Heel.Upper			R.Heel.Med			R.Heel.Lat			R.Toe.Lat			R.Toe.Med			R.Toe.Tip			L.Thigh.Upper.Post			L.Thigh.Lower.Ant			L.Thigh.Lower.Post			L.Thigh.Upper.Ant			L.Knee.Lat			L.Knee.Med			L.Shank.Upper.Post			L.Shank.Lower.Ant			L.Shank.Lower.Post			L.Shank.Upper.Ant			L.Ankle.Lat			L.Ankle.Med			L.Heel.Upper			L.Heel.Med			L.Heel.Lat			L.Toe.Lat			L.Toe.Med			L.Toe.Tip			Cervical.Spine			Back			
		X1	Y1	Z1	X2	Y2	Z2	X3	Y3	Z3	X4	Y4	Z4	X5	Y5	Z5	X6	Y6	Z6	X7	Y7	Z7	X8	Y8	Z8	X9	Y9	Z9	X10	Y10	Z10	X11	Y11	Z11	X12	Y12	Z12	X13	Y13	Z13	X14	Y14	Z14	X15	Y15	Z15	X16	Y16	Z16	X17	Y17	Z17	X18	Y18	Z18	X19	Y19	Z19	X20	Y20	Z20	X21	Y21	Z21	X22	Y22	Z22	X23	Y23	Z23	X24	Y24	Z24	X25	Y25	Z25	X26	Y26	Z26	X27	Y27	Z27	X28	Y28	Z28	X29	Y29	Z29	X30	Y30	Z30	X31	Y31	Z31	X32	Y32	Z32	X33	Y33	Z33	X34	Y34	Z34	X35	Y35	Z35	X36	Y36	Z36	X37	Y37	Z37	X38	Y38	Z38	X39	Y39	Z39	X40	Y40	Z40	X41	Y41	Z41	X42	Y42	Z42	X43	Y43	Z43	X44	Y44	Z44	X45	Y45	Z45	X46	Y46	Z46	X47	Y47	Z47	X48	Y48	Z48	X49	Y49	Z49	X50	Y50	Z50	X51	Y51	Z51	

54	0.22083	-1029.6	1265	323.08	-1147.8	1426.3	474.11	-1158	1444.4	174.22	-1201	1740.8	329.69	-1084.6	994.39	429.85	-1086.6	1030.3	201.45	-1290.7	1014.8	342.05	-1287	1030.5	262.31	-1157.9	906.34	494.22	-1144.6	970.79	139.84	-1188	1068.3	479.05	-1163.3	1103.4	178.34	-1309.4	987.24	301.97	-1105.8	704.08	501.34	-1034.1	635.73	470.93	-1095.4	615.4	497.57	-1042.5	727.04	471.69	-1085.5	492.1	467.11	-1066.8	486.09	334.51	-1286.2	403.46	459	-1304.5	315.12	457.76	-1348.6	359.54	455.62	-1233	354.12	461.99	-1423.2	277.24	442.94	-1401.1	267.81	362.02	-1478.1	307.77	388.83	-1494.1	289.62	361.42	-1492.4	295.87	420.95	-1458.7	131.44	472.33	-1430.6	108.11	366.4	NaN	NaN	NaN	-1134.2	683.34	148.72	-1045.4	619.28	175.57	-1117.8	591.52	173.54	-1055	705.99	151.12	-1070.2	512.77	191.38	-1061.6	518.97	319.9	-1136.5	301.54	196.63	-1074.9	212.07	216.81	-1138.9	223.12	209.87	-1074.8	287.72	203.47	-1117.1	105.32	224.51	-1100.8	117.55	313.61	-1183.1	75.446	274.46	-1172.1	43.796	306.38	-1178.8	47.259	242.67	-1004.3	42.287	197.33	NaN	NaN	NaN	-919.47	59.077	254.22	-1229.5	1489.6	336.88	-1318.9	1283.3	326.97
55	0.225	-1024.7	1266.1	323.31	-1143.6	1427.4	473.85	-1152.3	1445.5	173.91	-1195.4	1742	329.2	-1079.6	995.8	429.56	-1081.4	1031.1	201.12	-1285.7	1016.1	341.48	-1281.9	1031.7	261.73	-1152.9	907.86	493.96	-1139.8	971.4	139.55	-1183	1069.6	478.61	-1157.9	1104.3	177.93	-1304.4	988.49	301.43	-1098	706.01	501.21	-1025.7	638.53	470.8	-1086.6	617.47	497.55	-1035.2	729.73	471.35	-1075.3	494.25	467.07	-1056.5	488.48	334.36	-1275.3	404.1	458.4	-1292.2	315.38	457.23	-1337.2	359.65	455.04	-1221.9	355.32	461.61	-1411.2	276.75	442.26	-1389.1	267.36	361.6	-1467.4	306.1	388.02	-1483	287.3	360.69	-1481	293.93	420.27	-1443.9	130.77	472.38	-1414.7	107.84	366.3	NaN	NaN	NaN	-1131.8	683.95	148.73	-1043.3	619.26	175.15	-1116.1	592.01	173.5	-1052.6	705.82	150.95	-1069	512.86	191.14	-1059.9	518.92	319.55	-1135.8	301.81	196.45	-1074.7	212.06	216.68	-1138.6	223.35	209.74	-1074.4	287.7	203.31	-1117	105.36	224.51	-1100.7	117.64	313.56	-1183.1	75.564	274.44	-1172	43.914	306.37	-1178.8	47.32	242.66	-1004.3	42.262	197.29	NaN	NaN	NaN	-919.45	58.992	254.2	-1224.5	1490.7	336.22	-1313.9	1284.4	325.88
56	0.22917	-1019.7	1267.3	323.53	-1139.5	1428.5	473.59	-1146.7	1446.6	173.61	-1189.9	1743.3	328.73	-1074.6	997.22	429.26	-1076.1	1032	200.77	-1280.7	1017.3	340.96	-1276.8	1032.8	261.19	-1147.9	909.39	493.72	-1135	971.99	139.26	-1178	1071	478.17	-1152.5	1105.2	177.52	-1299.4	989.74	300.95	-1090.3	707.98	501.08	-1017.3	641.37	470.64	-1077.9	619.59	497.54	-1027.9	732.46	470.98	-1065.2	496.43	467	-1046.3	490.92	334.2	-1264.5	404.6	457.79	-1279.9	315.49	456.68	-1325.7	359.54	454.44	-1210.8	356.44	461.22	-1399.1	276	441.55	-1377.1	266.7	361.15	-1456.5	304.11	387.18	-1471.7	284.65	359.93	-1469.7	291.67	419.56	-1428.9	129.88	472.44	-1398.7	107.39	366.21	NaN	NaN	NaN	-1129.4	684.55	148.77	-1041.3	619.24	174.75	-1114.5	592.51	173.5	-1050.3	705.66	150.77	-1067.8	512.97	190.9	-1058.3	518.88	319.21	-1135.2	302.08	196.26	-1074.5	212.07	216.55	-1138.1	223.61	209.6	-1074	287.69	203.17	-1117	105.4	224.5	-1100.6	117.72	313.5	-1183.1	75.687	274.43	-1172	44.035	306.37	-1178.8	47.385	242.65	-1004.3	42.238	197.26	NaN	NaN	NaN	-919.44	58.905	254.19	-1219.5	1491.7	335.56	-1308.9	1285.4	324.81
57	0.23333	-1014.8	1268.5	323.72	-1135.3	1429.6	473.32	-1141.1	1447.6	173.3	-1184.4	1744.5	328.29	-1069.6	998.62	428.94	-1070.9	1032.8	200.4	-1275.7	1018.6	340.47	-1271.7	1033.9	260.69	-1142.9	910.95	493.5	-1130.2	972.57	138.96	-1172.9	1072.3	477.73	-1147.2	1106.1	177.09	-1294.4	990.97	300.5	-1082.5	709.98	500.97	-1009	644.26	470.46	-1069.2	621.76	497.54	-1020.6	735.21	470.6	-1055.2	498.64	466.92	-1036.1	493.41	334.03	-1253.7	404.95	457.19	-1267.6	315.46	456.12	-1314.3	359.22	453.85	-1199.7	357.46	460.82	-1386.9	275	440.83	-1364.9	265.82	360.68	-1445.6	301.8	386.32	-1460.4	281.69	359.14	-1458.4	289.07	418.83	-1413.8	128.8	472.51	-1382.5	106.76	366.13	NaN	NaN	NaN	-1127	685.17	148.83	-1039.3	619.21	174.38	-1112.8	593.02	173.52	-1047.9	705.49	150.58	-1066.7	513.08	190.67	-1056.8	518.83	318.89	-1134.6	302.37	196.09	-1074.3	212.08	216.43	-1137.7	223.89	209.46	-1073.6	287.69	203.03	-1116.9	105.44	224.49	-1100.5	117.8	313.43	-1183.1	75.814	274.42	-1172	44.157	306.37	-1178.8	47.453	242.64	-1004.3	42.213	197.23	NaN	NaN	NaN	-919.42	58.816	254.17	-1214.5	1492.7	334.91	-1303.8	1286.5	323.75
58	0.2375	-1009.9	1269.7	323.9	-1131.2	1430.7	473.05	-1135.5	1448.7	173	-1178.9	1745.7	327.87	-1064.7	1000	428.61	-1065.7	1033.6	200.01	-1270.7	1019.8	340.02	-1266.6	1035	260.22	-1137.7	912.51	493.3	-1125.5	973.12	138.65	-1167.9	1073.7	477.3	-1141.9	1106.9	176.65	-1289.4	992.19	300.11	-1074.8	712.02	500.88	-1000.8	647.18	470.25	-1060.6	623.97	497.55	-1013.5	737.98	470.2	-1045.3	500.87	466.81	-1026	495.95	333.85	-1243	405.16	456.6	-1255.3	315.3	455.55	-1302.8	358.68	453.25	-1188.7	358.4	460.41	-1374.7	273.75	440.1	-1352.7	264.72	360.2	-1434.5	299.17	385.44	-1448.9	278.43	358.32	-1447.1	286.16	418.08	-1398.5	127.51	472.58	-1366	105.95	366.08	NaN	NaN	NaN	-1124.7	685.78	148.92	-1037.3	619.17	174.02	-1111.2	593.54	173.57	-1045.5	705.32	150.4	-1065.6	513.2	190.45	-1055.3	518.79	318.59	-1134	302.66	195.92	-1074.1	212.11	216.31	-1137.3	224.2	209.3	-1073.3	287.72	202.9	-1116.9	105.48	224.48	-1100.4	117.88	313.37	-1183.1	75.944	274.41	-1172	44.282	306.37	-1178.7	47.526	242.64	-1004.3	42.189	197.2	NaN	NaN	NaN	-919.4	58.725	254.16	-1209.6	1493.7	334.26	-1298.8	1287.5	322.69
59	0.24167	-1004.9	1270.9	324.05	-1127	1431.9	472.78	-1130	1449.9	172.7	-1173.3	1746.8	327.48	-1059.7	1001.4	428.26	-1060.5	1034.4	199.6	-1265.7	1021.1	339.62	-1261.6	1036.1	259.8	-1132.6	914.07	493.12	-1120.9	973.65	138.33	-1162.9	1075.1	476.86	-1136.6	1107.7	176.2	-1284.4	993.4	299.76	-1067.1	714.09	500.8	-992.53	650.12	470.01	-1051.9	626.22	497.57	-1006.3	740.75	469.79	-1035.5	503.1	466.69	-1016	498.52	333.66	-1232.3	405.22	456.02	-1243	315	454.98	-1291.3	357.94	452.66	-1177.6	359.23	460	-1362.3	272.25	439.35	-1340.3	263.41	359.7	-1423.2	296.23	384.55	-1437.3	274.88	357.47	-1435.8	282.94	417.31	-1383	126.04	472.65	-1349.5	104.97	366.05	NaN	NaN	NaN	-1122.4	686.4	149.03	-1035.4	619.14	173.69	-1109.7	594.08	173.65	-1043.2	705.15	150.22	-1064.6	513.32	190.22	-1053.9	518.74	318.3	-1133.4	302.96	195.76	-1074	212.15	216.19	-1136.8	224.54	209.15	-1072.9	287.77	202.77	-1116.9	105.53	224.48	-1100.3	117.96	313.3	-1183	76.077	274.4	-1172	44.407	306.38	-1178.7	47.603	242.63	-1004.2	42.166	197.17	NaN	NaN	NaN	-919.37	58.632	254.14	-1204.7	1494.7	333.62	-1293.8	1288.5	321.66
60	0.24583	-1000	1272.2	324.18	-1122.9	1433	472.5	-1124.5	1451	172.4	-1167.8	1748	327.12	-1054.8	1002.8	427.89	-1055.3	1035.1	199.17	-1260.7	1022.3	339.25	-1256.5	1037.2	259.41	-1127.4	915.63	492.95	-1116.3	974.17	138.01	-1157.9	1076.4	476.43	-1131.4	1108.5	175.75	-1279.5	994.57	299.45	-1059.5	716.17	500.73	-984.36	653.08	469.74	-1043.3	628.49	497.59	-999.22	743.53	469.36	-1025.9	505.33	466.55	-1006.1	501.13	333.46	-1221.7	405.14	455.46	-1230.7	314.59	454.41	-1279.8	357	452.08	-1166.5	359.96	459.58	-1349.8	270.5	438.6	-1327.9	261.89	359.2	-1411.8	293	383.64	-1425.6	271.05	356.6	-1424.4	279.41	416.53	-1367.4	124.39	472.73	-1332.7	103.83	366.05	-1298.9	59.292	412.17	-1120	687.02	149.15	-1033.6	619.1	173.37	-1108.1	594.63	173.75	-1040.8	704.97	150.05	-1063.6	513.43	189.99	-1052.6	518.7	318.04	-1132.8	303.26	195.61	-1073.9	212.2	216.07	-1136.3	224.9	208.99	-1072.5	287.83	202.64	-1116.8	105.57	224.48	-1100.2	118.05	313.23	-1183	76.214	274.4	-1172	44.534	306.39	-1178.7	47.685	242.63	-1004.2	42.144	197.15	NaN	NaN	NaN	-919.35	58.536	254.13	-1199.8	1495.7	332.99	-1288.7	1289.5	320.63
61	0.25	-995.13	1273.4	324.29	-1118.8	1434.1	472.22	-1119	1452.1	172.1	-1162.3	1749.2	326.79	-1049.9	1004.1	427.52	-1050.1	1035.8	198.73	-1255.7	1023.5	338.92	-1251.4	1038.2	259.05	-1122.1	917.19	492.81	-1111.7	974.65	137.69	-1153	1077.8	475.99	-1126.2	1109.3	175.28	-1274.5	995.71	299.18	-1051.9	718.27	500.68	-976.24	656.04	469.44	-1034.7	630.78	497.62	-992.18	746.31	468.92	-1016.3	507.55	466.39	-996.38	503.76	333.25	-1211.1	404.9	454.92	-1218.5	314.06	453.84	-1268.3	355.86	451.51	-1155.4	360.58	459.16	-1337.2	268.53	437.85	-1315.3	260.18	358.69	-1400.2	289.47	382.73	-1413.7	266.95	355.71	-1413.1	275.58	415.74	-1351.6	122.58	472.8	-1315.9	102.52	366.08	-1283.4	58.829	412.9	-1117.7	687.65	149.3	-1031.7	619.06	173.07	-1106.6	595.19	173.87	-1038.5	704.79	149.89	-1062.7	513.55	189.77	-1051.3	518.66	317.8	-1132.3	303.57	195.47	-1073.8	212.27	215.96	-1135.7	225.28	208.85	-1072.2	287.91	202.51	-1116.8	105.62	224.48	-1100.1	118.13	313.16	-1183	76.355	274.4	-1172	44.661	306.4	-1178.7	47.771	242.63	-1004.2	42.123	197.12	NaN	NaN	NaN	-919.32	58.438	254.11	-1194.9	1496.6	332.37	-1283.7	1290.5	319.62
